<?xml version="1.0" encoding="UTF-8"?>
<svg id="Livello_1" xmlns="http://www.w3.org/2000/svg" version="1.1" viewBox="0 0 128 128">
  <!-- Generator: Adobe Illustrator 30.2.1, SVG Export Plug-In . SVG Version: 2.1.1 Build 1)  -->
  <defs>
    <style>
      .st0 {
        fill: #faf6f0;
      }

      .st1 {
        fill: #0f5559;
      }
    </style>
  </defs>
  <rect class="st0" width="128" height="128"/>
  <g>
    <path class="st1" d="M45.4,100.9H4.5v-4.1c.9,0,2.3-.2,4.1-.3s3.1-.3,3.8-.6c1.3-.5,2.2-1.2,2.6-2.1.5-.8.7-1.9.7-3.2v-52.3c0-1.2-.2-2.2-.7-3.1-.5-.9-1.3-1.6-2.7-2.2-.8-.3-2.1-.7-3.7-1.1-1.6-.4-3-.6-4.2-.8v-4.1h40.9v4.1c-1,.1-2.3.3-3.9.4-1.6.2-2.9.5-4,.8-1.4.5-2.3,1.2-2.7,2.1-.5,1-.7,2-.7,3.2v52.2c0,1.2.2,2.3.7,3.2s1.4,1.6,2.7,2.2c.7.3,1.9.6,3.6.9,1.7.3,3.1.5,4.2.5v4.1Z"/>
    <path class="st1" d="M91,102.9c-5.4,0-10.5-.9-15.2-2.6-4.7-1.8-8.8-4.3-12.3-7.6-3.4-3.3-6.1-7.3-8.1-12.1-2-4.8-3-10.1-3-15.8s1-11,3-15.9c2-4.9,4.8-9.1,8.4-12.7,3.5-3.5,7.8-6.2,12.7-8.1,5-1.9,10.3-2.9,15.9-2.9s7.8.5,11.2,1.5c3.4,1,6.2,2.1,8.5,3.4l3.2-2.9h4.5l.5,26.9h-4.6c-2.6-8.2-5.7-14.3-9.3-18.1-3.6-3.9-8.1-5.8-13.3-5.8s-11.5,2.9-14.8,8.6c-3.4,5.7-5.1,13.8-5.1,24.2s.6,10.9,1.7,15c1.2,4.1,2.7,7.5,4.5,10,2,2.6,4.4,4.6,7.1,5.8,2.7,1.2,5.8,1.8,9.1,1.8,4.8,0,9.2-1.3,13-4,3.8-2.6,7.2-6.6,10.4-12l4.5,2.7c-1.5,3-3.2,5.8-5.1,8.2-1.9,2.4-4.1,4.5-6.6,6.2-2.7,1.9-5.8,3.4-9.1,4.5-3.3,1.1-7.2,1.6-11.7,1.6Z"/>
  </g>
</svg>